<svg width="17" height="16" viewBox="0 0 17 16" fill="none" xmlns="http://www.w3.org/2000/svg">
  <path d="M6.83328 9.66498C6.78078 9.66497 6.72903 9.65256 6.68224 9.62876C6.63545 9.60497 6.59492 9.57045 6.56399 9.52803C6.53306 9.48562 6.51261 9.43649 6.50426 9.38466C6.49591 9.33283 6.49986 9.27976 6.5159 9.22978L7.0784 7.47491C7.12731 7.32323 7.21153 7.18532 7.32417 7.07257L12.9189 1.47925C12.9501 1.44777 12.9875 1.42296 13.0286 1.40631C13.27 1.32405 13.5296 1.31108 13.778 1.36887C14.0264 1.42667 14.2536 1.5529 14.4339 1.73328C14.6143 1.91365 14.7404 2.14094 14.7981 2.38936C14.8558 2.63778 14.8427 2.8974 14.7604 3.13877C14.7435 3.17978 14.7188 3.21706 14.6874 3.24845L9.0924 8.84125C8.9795 8.95363 8.84163 9.03773 8.69005 9.08671L6.93484 9.64884C6.84858 9.57391 6.79564 9.46778 6.78763 9.3538C6.77961 9.23981 6.81719 9.1273 6.89212 9.04103C6.96705 8.95477 7.07322 8.90181 7.1872 8.8938C7.30119 8.88578 7.41368 8.92338 7.49995 8.99831L6.83328 9.66498ZM13.332 2.00911L7.79552 7.5439C7.75781 7.5817 7.72957 7.6279 7.71316 7.67871L7.34826 8.81671L8.4866 8.45211C8.53738 8.43548 8.58352 8.40717 8.62137 8.36944L14.1582 2.83524C14.1792 2.72216 14.1723 2.60566 14.1382 2.49581C14.1041 2.38596 14.0438 2.28606 13.9625 2.20473C13.8812 2.1234 13.7813 2.06309 13.6714 2.02901C13.5616 1.99493 13.4451 1.9881 13.332 2.00911Z" fill="#111111"/>
  <path d="M9.15291 8.65485L8.53573 8.40292L8.84432 8.52885L8.5341 8.40713C8.56775 8.28746 8.56907 8.16099 8.53784 8.04067C8.50662 7.92035 8.44396 7.81049 8.35636 7.72229C8.26876 7.6341 8.15933 7.57074 8.03923 7.5387C7.91912 7.50666 7.79266 7.50708 7.67277 7.53992L7.42147 6.92279C7.66282 6.84055 7.92239 6.82756 8.17074 6.88534C8.41908 6.94311 8.64632 7.06932 8.82658 7.24966C9.00684 7.42999 9.13291 7.65723 9.19059 7.9056C9.24827 8.15397 9.23525 8.41353 9.15291 8.65485Z" fill="#111111"/>
  <path d="M7.18001 4H2.50001C2.13334 4 1.83334 4.3 1.83334 4.66667V14C1.83334 14.3667 2.13334 14.6667 2.50001 14.6667H11.8333C12.2 14.6667 12.5 14.3667 12.5 14V9.32667C12.5 8.96 12.2 8.66 11.8333 8.66C11.4667 8.66 11.1667 8.96 11.1667 9.32667V14L11.8333 13.3333H2.50001L3.16668 14V4.66667L2.50001 5.33333H7.18001C7.54668 5.33333 7.84668 5.03333 7.84668 4.66667C7.84668 4.3 7.54668 4 7.18001 4Z" fill="url(#paint0_linear)"/>
  <defs>
    <linearGradient id="paint0_linear" x1="5.16668" y1="5.33333" x2="14.5" y2="16" gradientUnits="userSpaceOnUse">
      <stop stop-color="#52B654"/>
      <stop offset="0.0953997" stop-color="#99AD33"/>
      <stop offset="0.195324" stop-color="#E8651F"/>
      <stop offset="0.304864" stop-color="#EC2A22"/>
      <stop offset="0.425716" stop-color="#B04056"/>
      <stop offset="0.55345" stop-color="#128FDC"/>
      <stop offset="0.650547" stop-color="#2983C8"/>
      <stop offset="0.793512" stop-color="#85557A"/>
    </linearGradient>
  </defs>
</svg>
